<svg width="30" height="30" viewBox="0 0 30 30" fill="none" xmlns="http://www.w3.org/2000/svg">
<g clip-path="url(#clip0_270_501)">
<path d="M1.37695 1.14258L27.6855 13.2129C27.2852 13.5449 26.0977 14.3203 24.5508 14.7656C22.6172 15.3223 17.4023 17.6367 16.6406 18.8965C16.0312 19.9043 13.8281 25.6445 12.8027 28.3887L1.37695 1.14258Z" fill="#E9E9F6" stroke="#24242E"/>
<path d="M29.4713 12.3449L1.22918 0.0730584C1.06738 0.00275189 0.88817 -0.0172375 0.714857 0.0156905C0.541544 0.0486185 0.38215 0.13294 0.25741 0.257686C0.13267 0.382432 0.0483573 0.54183 0.0154381 0.715145C-0.0174811 0.888459 0.00251731 1.06767 0.072832 1.22946L12.3447 29.4716C12.4163 29.6364 12.5368 29.7753 12.6898 29.8696C12.8428 29.9639 13.021 30.0089 13.2005 29.9988C13.3799 29.9886 13.5519 29.9237 13.6933 29.8128C13.8347 29.7018 13.9387 29.5502 13.9912 29.3784L16.6228 20.7741C16.9215 19.7949 17.4563 18.9043 18.1802 18.1804C18.904 17.4566 19.7947 16.9218 20.7738 16.6231L29.3781 13.9915C29.55 13.939 29.7016 13.835 29.8125 13.6936C29.9235 13.5522 29.9884 13.3802 29.9986 13.2007C30.0087 13.0213 29.9636 12.843 29.8694 12.69C29.7751 12.537 29.6362 12.4166 29.4713 12.3449ZM20.2598 14.9421C17.7098 15.722 15.7218 17.71 14.9419 20.26L13.0073 26.5856L2.57361 2.57384L26.5853 13.0075L20.2598 14.9421Z" fill="#24242E"/>
</g>
<defs>
<clipPath id="clip0_270_501">
<rect width="30" height="30" fill="white"/>
</clipPath>
</defs>
</svg>
