<svg width="30" height="30" viewBox="0 0 30 30" fill="none" xmlns="http://www.w3.org/2000/svg">
<g clip-path="url(#clip0_270_505)">
<path d="M24.6734 9.26C24.2484 9.26 23.8459 9.34625 23.4784 9.50375C23.2561 8.93818 22.869 8.45248 22.3672 8.10966C21.8655 7.76684 21.2723 7.58274 20.6646 7.58125C20.1909 7.58125 19.7409 7.69125 19.3421 7.88625C19.0879 7.3928 18.7031 6.97866 18.2296 6.68901C17.7561 6.39936 17.2122 6.24534 16.6571 6.24375C16.3218 6.24373 15.9889 6.29992 15.6721 6.41V3.05125C15.6748 2.24552 15.3576 1.47167 14.7902 0.899589C14.2228 0.327511 13.4516 0.00396963 12.6459 0C11.8396 0.00330921 11.0676 0.326519 10.4995 0.898633C9.93135 1.47075 9.61354 2.24498 9.61587 3.05125V15.1363L7.43212 12.6388C7.14981 12.3412 6.81005 12.104 6.4334 11.9415C6.05675 11.7791 5.65105 11.6948 5.24087 11.6937H5.22462C4.41587 11.6937 3.65587 12.0063 3.08962 12.575C2.08837 13.5775 2.03337 15.065 2.93712 16.6575C4.10962 18.7175 5.38337 20.6587 6.50837 22.3712C7.33087 23.6237 8.10587 24.8062 8.67212 25.7825C9.16337 26.6337 10.4709 29.385 10.4859 29.4125C10.6521 29.7713 11.0134 30 11.4084 30H24.3671C24.8121 30 25.2071 29.7125 25.3409 29.29C25.5834 28.5375 27.7034 21.8738 27.7034 19.3025V12.3088C27.7047 11.503 27.3865 10.7296 26.8185 10.1581C26.2505 9.58661 25.4791 9.26364 24.6734 9.26Z" fill="#24242E"/>
<path d="M23.6942 12.3088C23.6942 11.7588 24.1355 11.3075 24.673 11.3075C25.2142 11.3075 25.6542 11.7575 25.6542 12.3088V19.3013C25.6542 21.0125 24.3392 25.6088 23.6142 27.9501H12.0542C11.6305 27.0663 10.8355 25.4276 10.4442 24.7551C9.84923 23.7288 9.05798 22.525 8.21923 21.2475C7.11298 19.5588 5.85798 17.6463 4.71923 15.6438C4.42048 15.12 4.14673 14.4138 4.53673 14.0238C4.7207 13.8434 4.96778 13.7418 5.22546 13.7406C5.48315 13.7394 5.73113 13.8388 5.91673 14.0175L9.87048 18.5375C10.0073 18.6948 10.189 18.8064 10.3911 18.8575C10.5932 18.9086 10.8061 18.8967 11.0013 18.8234C11.1964 18.7501 11.3645 18.6189 11.483 18.4474C11.6015 18.2759 11.6647 18.0723 11.6642 17.8638V3.0513C11.6642 2.4988 12.1055 2.05005 12.6467 2.05005C13.1855 2.0513 13.6242 2.50005 13.6242 3.0513V12.6188C13.6372 12.8816 13.7507 13.1293 13.9413 13.3107C14.1319 13.492 14.3849 13.5932 14.648 13.5932C14.9111 13.5932 15.1641 13.492 15.3546 13.3107C15.5452 13.1293 15.6587 12.8816 15.6717 12.6188V9.29255C15.6717 8.74255 16.113 8.2938 16.6567 8.2938C16.7865 8.29511 16.9148 8.32198 17.0342 8.3729C17.1536 8.42382 17.2617 8.49777 17.3525 8.59053C17.4433 8.68329 17.5149 8.79304 17.5633 8.9135C17.6116 9.03396 17.6357 9.16276 17.6342 9.29255V13.955C17.6472 14.2178 17.7607 14.4655 17.9513 14.6469C18.1419 14.8283 18.3949 14.9294 18.658 14.9294C18.9211 14.9294 19.1741 14.8283 19.3646 14.6469C19.5552 14.4655 19.6687 14.2178 19.6817 13.955V10.6325C19.6817 10.0788 20.1217 9.63005 20.663 9.63005C21.2042 9.63005 21.6442 10.0788 21.6442 10.6325V15.29C21.6374 15.4287 21.6588 15.5674 21.7071 15.6976C21.7555 15.8277 21.8298 15.9467 21.9255 16.0473C22.0213 16.1479 22.1364 16.228 22.2641 16.2827C22.3917 16.3374 22.5291 16.3657 22.668 16.3657C22.8068 16.3657 22.9443 16.3374 23.0719 16.2827C23.1995 16.228 23.3147 16.1479 23.4104 16.0473C23.5062 15.9467 23.5805 15.8277 23.6288 15.6976C23.6772 15.5674 23.6986 15.4287 23.6917 15.29V12.3088H23.6942Z" fill="#E9E9F6"/>
</g>
<defs>
<clipPath id="clip0_270_505">
<rect width="30" height="30" fill="white"/>
</clipPath>
</defs>
</svg>
