<svg width="201" height="201" viewBox="0 0 201 201" fill="none" xmlns="http://www.w3.org/2000/svg">
<g clip-path="url(#clip0_107_1512)">
<rect width="201" height="201" rx="100.5" fill="#24242E"/>
<path d="M58.0711 56.6563V69.9148C50.5151 69.4159 46.7371 72.4454 46.7371 79.0034V79.538H58.0711V92.7966H46.7371V133H32.9439V92.7966H25.2454V79.538H32.9439V79.0034C32.9439 71.3761 35.0468 65.6379 39.2525 61.7886C43.5294 57.8681 49.8023 56.1573 58.0711 56.6563ZM123.522 78.0411C129.652 78.0411 134.535 80.037 138.171 84.0288C141.877 88.0206 143.731 93.3668 143.731 100.067V133H129.937V101.03C129.937 97.822 129.153 95.3271 127.585 93.545C126.017 91.763 123.807 90.8719 120.956 90.8719C117.819 90.8719 115.36 91.9055 113.578 93.9727C111.867 96.0399 111.012 99.0338 111.012 102.954V133H97.2186V101.03C97.2186 97.822 96.4345 95.3271 94.8663 93.545C93.2981 91.763 91.0883 90.8719 88.237 90.8719C85.1719 90.8719 82.7126 91.9412 80.8593 94.0797C79.0772 96.1469 78.1862 99.1051 78.1862 102.954V133H64.393V79.538H78.1862V85.205C81.3939 80.429 86.348 78.0411 93.0486 78.0411C99.6779 78.0411 104.525 80.6072 107.59 85.7396C111.083 80.6072 116.394 78.0411 123.522 78.0411ZM172.553 125.301C172.553 127.796 171.662 129.935 169.88 131.717C168.098 133.499 165.96 134.39 163.465 134.39C160.97 134.39 158.831 133.499 157.049 131.717C155.267 129.935 154.376 127.796 154.376 125.301C154.376 122.807 155.267 120.668 157.049 118.886C158.831 117.104 160.97 116.213 163.465 116.213C165.96 116.213 168.098 117.104 169.88 118.886C171.662 120.668 172.553 122.807 172.553 125.301Z" fill="#5C5CBC"/>
</g>
<defs>
<clipPath id="clip0_107_1512">
<rect width="201" height="201" fill="white"/>
</clipPath>
</defs>
</svg>
