<svg width="295" height="318" viewBox="0 0 295 318" fill="none" xmlns="http://www.w3.org/2000/svg">
<g filter="url(#filter0_d_214_1752)">
<path d="M250.218 105.723C262.327 88.3152 260.871 63.8009 245.85 48.1501C229.603 31.2217 203.547 30.7426 186.763 46.7927V44.5568C186.763 19.9627 167.604 0 144 0C120.396 0 101.237 19.9627 101.237 44.5568V46.7927C84.4534 30.8225 58.397 31.2217 42.1501 48.1501C27.0527 63.8808 25.5966 88.3152 37.7818 105.723C16.5535 108.278 0 127.123 0 149.96C0 174.554 19.1591 194.517 42.7632 194.517H44.909L42.2267 197.312C25.52 214.719 25.52 242.907 42.2267 260.314C58.5503 277.322 84.9133 277.722 101.62 261.272C104.379 283.072 122.312 300 144 300C165.688 300 183.621 283.151 186.38 261.272C203.163 277.642 229.45 277.322 245.773 260.314C262.48 242.907 262.48 214.719 245.773 197.312L243.091 194.517H245.237C268.841 194.517 288 174.554 288 149.96C287.923 127.123 271.447 108.278 250.218 105.723Z" fill="#A7A7F0"/>
<path d="M247.755 104.01L244.907 108.105L249.86 108.701C269.493 111.064 284.924 128.552 285 149.961C284.999 173.015 267.069 191.517 245.237 191.517H243.091H236.054L240.927 196.594L243.609 199.389C259.202 215.636 259.202 241.99 243.609 258.237C228.445 274.036 204.072 274.337 188.475 259.125L184.158 254.914L183.404 260.897C180.819 281.393 164.061 297 144 297C123.943 297 107.181 281.318 104.596 260.896L103.835 254.881L99.5152 259.135C84.0066 274.404 59.5637 274.046 44.3912 258.237C28.7985 241.99 28.7985 215.636 44.3912 199.389L47.0734 196.594L51.9463 191.517H44.909H42.7632C20.931 191.517 3 173.015 3 149.96C3 128.563 18.4954 111.066 38.1403 108.701L43.11 108.103L40.2395 104.002C28.8574 87.7421 30.2311 64.9016 44.3145 50.2274C59.4097 34.4991 83.5737 34.1265 99.1688 48.966L104.237 53.7884V46.7927V44.5568C104.237 21.5022 122.168 3 144 3C165.832 3 183.763 21.5022 183.763 44.5568V46.7927V53.8126L188.837 48.9608C204.424 34.055 228.584 34.4924 243.685 50.2274C257.689 64.8185 259.071 87.7424 247.755 104.01Z" stroke="#24242E" stroke-width="6"/>
</g>
<defs>
<filter id="filter0_d_214_1752" x="0" y="0" width="295" height="318" filterUnits="userSpaceOnUse" color-interpolation-filters="sRGB">
<feFlood flood-opacity="0" result="BackgroundImageFix"/>
<feColorMatrix in="SourceAlpha" type="matrix" values="0 0 0 0 0 0 0 0 0 0 0 0 0 0 0 0 0 0 127 0" result="hardAlpha"/>
<feOffset dx="7" dy="18"/>
<feComposite in2="hardAlpha" operator="out"/>
<feColorMatrix type="matrix" values="0 0 0 0 0.141176 0 0 0 0 0.141176 0 0 0 0 0.180392 0 0 0 1 0"/>
<feBlend mode="normal" in2="BackgroundImageFix" result="effect1_dropShadow_214_1752"/>
<feBlend mode="normal" in="SourceGraphic" in2="effect1_dropShadow_214_1752" result="shape"/>
</filter>
</defs>
</svg>
